<?xml version="1.0" encoding="utf-8"?>
<!-- Generator: Adobe Illustrator 24.0.3, SVG Export Plug-In . SVG Version: 6.00 Build 0)  -->
<!DOCTYPE svg PUBLIC "-//W3C//DTD SVG 1.1//EN" "http://www.w3.org/Graphics/SVG/1.1/DTD/svg11.dtd" [
	<!ENTITY ns_extend "http://ns.adobe.com/Extensibility/1.0/">
	<!ENTITY ns_ai "http://ns.adobe.com/AdobeIllustrator/10.0/">
	<!ENTITY ns_graphs "http://ns.adobe.com/Graphs/1.0/">
	<!ENTITY ns_vars "http://ns.adobe.com/Variables/1.0/">
	<!ENTITY ns_imrep "http://ns.adobe.com/ImageReplacement/1.0/">
	<!ENTITY ns_sfw "http://ns.adobe.com/SaveForWeb/1.0/">
	<!ENTITY ns_custom "http://ns.adobe.com/GenericCustomNamespace/1.0/">
	<!ENTITY ns_adobe_xpath "http://ns.adobe.com/XPath/1.0/">
]>
<svg version="1.1" id="Layer_1" xmlns:x="&ns_extend;" xmlns:i="&ns_ai;" xmlns:graph="&ns_graphs;"
	 xmlns="http://www.w3.org/2000/svg" xmlns:xlink="http://www.w3.org/1999/xlink" x="0px" y="0px" viewBox="0 0 657.1 437.4"
	 style="enable-background:new 0 0 657.1 437.4;" xml:space="preserve">
<style type="text/css">
	.st0{fill-rule:evenodd;clip-rule:evenodd;fill:#FF0000;stroke:#000000;stroke-width:10;}
	.st1{fill-rule:evenodd;clip-rule:evenodd;fill:#FFFFFF;stroke:#000000;stroke-width:10;}
	.st2{fill:#FFFFFF;stroke:#000000;stroke-width:10;}
</style>
<metadata>
	<sfw  xmlns="&ns_sfw;">
		<slices></slices>
		<sliceSourceBounds  bottomLeftOrigin="true" height="437.4" width="657.1" x="0" y="0"></sliceSourceBounds>
	</sfw>
</metadata>
<g>
	<g>
		<path class="st0" d="M435.4,144.4c-87.9-45.9-198.7-22.2-284.2,36.1c-46.1,31.4-103.7,53-136.3,98c-37.9,52.4,43.4,51.4,79.5,37.2
			c64.2-25.2,34.8,85.1,88.1,82.3c61.2-3.3,92.2,2.2,135.2-49.8c36.3-43.9,110.6-23.7,137.3-84.5c9.5-23,18.6-47.3,34.6-66.6"/>
		<path class="st1" d="M336.3,122.1c-56.7,7.1-210.9,69.6-155.6,115.7c55.4,46.2,191.8-89.6,158.8-31C303.9,270,113,317,207.2,401.6
			c46,41.3,160-179.8,144.2-27.4c-11.8,113.9,121,40.6,98.9-49.6c-24.5-99.9,116.1-142.7,179.1-207.2c69.8-71.6-40-116.5-76.9-35.8
			c-18.9,41.4-82.4,28.5-124.7,34.8"/>
	</g>
	<path class="st2" d="M485.9,85c0,44.2-38.4,80-85.7,80s-85.7-35.8-85.7-80s38.4-80,85.7-80S485.9,40.8,485.9,85z"/>
</g>
</svg>
